<svg viewBox="0 0 64 64" xmlns="http://www.w3.org/2000/svg"><path d="M57 38.33C57 50.76 45.81 57 32 57S7 50.76 7 38.33a27 27 0 0 1 5.81-16 27 27 0 0 1 11.07-8.71 21 21 0 0 1 16.24 0 27 27 0 0 1 11.07 8.71 27 27 0 0 1 5.81 16Z" fill="#d2e0f4" class="fill-d8d9dd"></path><path d="M23.88 13.63a27 27 0 0 0-11.07 8.71 8 8 0 1 1 11.07-8.71ZM56 15a8 8 0 0 1-4.81 7.34 27 27 0 0 0-11.07-8.71A8 8 0 0 1 56 15ZM18.74 40a5.66 5.66 0 0 1-5.6-7c1-4.83 7.55-8 11.21-8 7.13 0 3.05 15-5.61 15ZM45.26 40a5.66 5.66 0 0 0 5.6-7c-1-4.83-7.55-8-11.21-8-7.13 0-3.05 15 5.61 15Z" fill="#283655" class="fill-434347"></path><circle cx="23.5" cy="30.5" r="1.5" fill="#1e1f26" class="fill-2d2d2d"></circle><circle cx="40.5" cy="30.5" r="1.5" fill="#1e1f26" class="fill-2d2d2d"></circle><path d="M32 50a1 1 0 0 1-1-1v-6a1 1 0 0 1 2 0v6a1 1 0 0 1-1 1Z" fill="#283655" class="fill-434347"></path><path d="M37 50H27a1 1 0 0 1 0-2h10a1 1 0 0 1 0 2Z" fill="#283655" class="fill-434347"></path><path d="m32 43.38-2.23-1.12A1.4 1.4 0 0 1 29 41a1.39 1.39 0 0 1 1.39-1.39h3.22A1.39 1.39 0 0 1 35 41a1.4 1.4 0 0 1-.77 1.24Z" fill="#1e1f26" class="fill-3e2c27"></path></svg>